<svg width="169" height="170" viewBox="0 0 169 170" fill="none" xmlns="http://www.w3.org/2000/svg">
<path d="M167 85C167 95.834 164.866 106.562 160.72 116.571C156.574 126.581 150.497 135.675 142.836 143.336C135.175 150.997 126.081 157.074 116.071 161.22C106.062 165.366 95.3341 167.5 84.5 167.5C73.6659 167.5 62.938 165.366 52.9286 161.22C42.9193 157.074 33.8245 150.997 26.1637 143.336C18.5029 135.675 12.4259 126.581 8.27994 116.571C4.13392 106.562 2 95.834 2 85" stroke="#FFAF2E" stroke-width="4" stroke-linecap="round"/>
<path d="M156.482 45C160.377 51.9555 163.237 59.4255 164.983 67.1734" stroke="#FFAF2E" stroke-width="4" stroke-linecap="round"/>
<path d="M3.5 72C5.21721 61.1513 9.04904 51.0061 14.56 42" stroke="#FFAF2E" stroke-width="4" stroke-linecap="round"/>
<path d="M106.752 6.30542C83.4278 -0.620081 59.4441 3.58852 40.5 15.8416" stroke="#FFAF2E" stroke-width="4" stroke-linecap="round"/>
<path d="M123.711 13C132.275 17.473 139.852 23.421 146.166 30.4569" stroke="#FFAF2E" stroke-width="4" stroke-linecap="round"/>
</svg>
