<svg xmlns="http://www.w3.org/2000/svg" xmlns:xlink="http://www.w3.org/1999/xlink" width="556.245" height="476.398" viewBox="0 0 585.521 501.472">
  <defs>
    <clipPath id="clip-path">
      <path id="Ellipse_9" data-name="Ellipse 9" d="M271.129,130.633C271.129,77.382,227.96,0,174.709,0,125.237,0,84.467,66.79,78.93,118.969c-49.125-6.221-114.943-30.325-55.07,14.774,23.751,17.89,38.369,43.8,66.884,44.322a96.439,96.439,0,0,0,151.9,20.995l-4.575,43.175C238.064,325.435,293.92,210.256,271.129,130.633Z" transform="translate(1027.927 162)" fill="#c4c4c4"/>
    </clipPath>
    <linearGradient id="linear-gradient" x1="0.168" y1="0.047" x2="0.337" y2="0.826" gradientUnits="objectBoundingBox">
      <stop offset="0" stop-color="#f4af8a"/>
      <stop offset="1" stop-color="#f9c0a1" stop-opacity="0"/>
    </linearGradient>
    <clipPath id="clip-path-2">
      <path id="Ellipse_9-2" data-name="Ellipse 9" d="M12.2,171.753A97.219,97.219,0,0,1,0,124.45C0,70.514,43.723.087,97.659.087c130.009-3.662,126.4,109.358,119.022,166.325H185.868a97.773,97.773,0,0,1-124.831,48.6q-1.152-.466-2.289-.961M12.2,171.753C9.754,233.4,39.674,252.627,51.881,242.708c-.61-7.935,4.323-22.413,6.867-28.66M12.2,171.753a98.049,98.049,0,0,0,46.547,42.3" transform="translate(719 162)" fill="#c4c4c4"/>
    </clipPath>
    <linearGradient id="linear-gradient-2" x1="0.296" y1="0.5" x2="0.623" y2="0.648" gradientUnits="objectBoundingBox">
      <stop offset="0" stop-color="#f3ad8f"/>
      <stop offset="1" stop-color="#fcc4ac" stop-opacity="0"/>
    </linearGradient>
    <linearGradient id="linear-gradient-3" x1="0.839" y1="0.798" x2="0.567" y2="0.718" gradientUnits="objectBoundingBox">
      <stop offset="0" stop-color="#026cf0"/>
      <stop offset="1" stop-color="#307fe2" stop-opacity="0"/>
    </linearGradient>
    <linearGradient id="linear-gradient-4" y1="0.609" x2="0.41" y2="0.656" gradientUnits="objectBoundingBox">
      <stop offset="0" stop-color="#fea568"/>
      <stop offset="1" stop-color="#f4b88e"/>
    </linearGradient>
    <linearGradient id="linear-gradient-5" x1="0.589" y1="0.984" x2="0.608" y2="0.853" gradientUnits="objectBoundingBox">
      <stop offset="0" stop-color="#0154f7"/>
      <stop offset="1" stop-color="#307fe2" stop-opacity="0"/>
    </linearGradient>
    <linearGradient id="linear-gradient-6" x1="0.951" y1="0.592" x2="0.739" y2="0.562" gradientUnits="objectBoundingBox">
      <stop offset="0" stop-color="#0071ff"/>
      <stop offset="1" stop-color="#307fe2" stop-opacity="0"/>
    </linearGradient>
    <linearGradient id="linear-gradient-7" x1="2.268" y1="0" x2="1.761" y2="0" xlink:href="#linear-gradient-6"/>
  </defs>
  <g id="Iamge" transform="translate(-719 -162)">
    <path id="Vector_3" data-name="Vector 3" d="M213.461,0,0-335.595H427.776Z" transform="translate(805.418 621.463)" fill="none" stroke="#2b2b39" stroke-linecap="round" stroke-linejoin="round" stroke-width="1" stroke-dasharray="3 3" opacity="0.7"/>
    <g id="Avater">
      <g id="Ellipse_9-3" data-name="Ellipse 9" clip-path="url(#clip-path)">
        <g id="Group_7" data-name="Group 7" transform="translate(1104.784 196.786)">
          <circle id="Ellipse_7" data-name="Ellipse 7" cx="96.419" cy="96.419" r="96.419" transform="translate(0.216 0.214)" fill="#fff"/>
          <circle id="Ellipse_8" data-name="Ellipse 8" cx="95.419" cy="95.419" r="95.419" transform="translate(1.216 1.214)" fill="none" stroke="rgba(255,175,46,0.6)" stroke-width="2"/>
        </g>
        <g id="Avater-2" data-name="Avater">
          <path id="Vector" d="M31.608,4.338c-25.946,20.7-23.3,64.7-24.868,88.649C5.639,109.742,2.19,133.754,0,147.5l48.613,7.158V70.412c0-28.08,1.954-62.591,9.615-70.024a56.4,56.4,0,0,0-13.276,0A24.247,24.247,0,0,0,35.674,2.22C34.129,3.136,32.995,3.546,31.608,4.338Z" transform="translate(1166.49 236.164)" fill="#fff"/>
          <path id="Vector-2" data-name="Vector" d="M31.608,0C5.661,20.7,8.306,64.7,6.739,88.649,5.639,105.4,2.19,129.416,0,143.157c18.488,6.8,26.589,8.423,48.613,7.157V66.075c0-21.707,1.168-47.257,5.24-61.17-4.381,7.021-10.452,40.91-9.525,61.17s.309,59.728-5.56,70.719-36.151,2.748-33.371-5.8,2.78-36.331,5.251-68.387C12.625,36.961,25.447,10.183,31.608,0Z" transform="translate(1166.49 240.501)" fill="#ffb83b" opacity="0.5"/>
          <path id="Vector-3" data-name="Vector" d="M33.551,89.452C27.676,100.443-2.6,92.2.18,83.652c7.1,10.991,24.1,7.632,26.879,3.358s7.11-14.96,7.11-32.972c0-14.41,3.707-42.029,5.56-54.038a142.758,142.758,0,0,0-.618,18.733C40.037,38.994,39.42,78.462,33.551,89.452Z" transform="translate(1171.709 287.843)" fill="#fff9ef"/>
          <path id="Vector-4" data-name="Vector" d="M2.51,53.733C4.06,33.695,12.221,12.965,18.657,0,15.023,7.836,7.829,28.088,8.076,46.406S2.8,87.621,0,96.78C.657,84.752,1.275,69.778,2.51,53.733Z" transform="translate(1174.627 249.375)" fill="#fff9ef"/>
          <path id="Vector-5" data-name="Vector" d="M10.817,178.6,0,177.074c1.651-11.3,13.1-66.5,17.848-102.825,1.033-7.925,2.106-16.218,3.2-24.776C25.25,16.322,39.813,6.549,51.286,0,25.34,20.7,23.919,66.816,22.352,90.766c-1.1,16.756-4.549,40.767-6.739,54.508C15.3,147.247,11.069,177.1,10.817,178.6Z" transform="translate(1150.873 238.384)" fill="#ffaf2e"/>
          <path id="Vector-6" data-name="Vector" d="M17.848,24.776C18.881,16.851,19.954,8.559,21.044,0c-.32,10.376-1.09,27.425-3.2,44.865C13.889,77.669,9.581,107.451,0,127.6,1.651,116.3,13.1,61.106,17.848,24.776Z" transform="translate(1150.873 287.856)" fill="#f3a00d"/>
          <path id="Vector-7" data-name="Vector" d="M50.4,179.516C45.148,156.619,37.42,66.555,37.42,66.555S43.649,34.774,33.4,19.234C26.856,9.294,9.615,0,9.615,0,1.954,7.433,0,41.944,0,70.024V183.485C13.321,186.232,35.567,187.454,50.4,179.516Z" transform="translate(1215.103 236.552)" fill="#ffaf2e"/>
          <path id="Vector-8" data-name="Vector" d="M3.892,0C.9,14.505,0,36.577,0,55.675v71.94A449.281,449.281,0,0,0,2.51,62.892,532.03,532.03,0,0,1,3.892,0Z" transform="translate(1215.103 250.901)" fill="#f9a319"/>
          <path id="Vector-9" data-name="Vector" d="M50.4,160.282C45.148,137.385,37.42,47.321,37.42,47.321S43.649,15.54,33.4,0c0,16.486-8.031,38.773-3.4,61.06,6.234,29.971,11.429,57.4,5.56,78.156C30.872,155.825,9.9,162.826,0,164.251,13.321,167,35.567,168.22,50.4,160.282Z" transform="translate(1215.103 255.786)" fill="#f9a319"/>
          <path id="Vector-10" data-name="Vector" d="M75.076,89.758C76.93,70.829,58.4,43.047,37.387,22.287,28.041,13.053,8.963,2.137,0,0L27.805,66.555A241.5,241.5,0,0,1,47.434,92.6C50.837,85.165,65.192,80.294,75.076,89.758Z" transform="translate(1224.716 236.553)" fill="#ffaf2e"/>
          <path id="Vector-11" data-name="Vector" d="M57.464,81.82c1.853-18.929-16.685-46.711-37.69-67.471C14.894,9.529,7.363,4.249,0,0,2.37,4.071,7.475,13.372,8.958,18.013,10.811,23.814,50.669,47,47.271,76.775A18.364,18.364,0,0,1,57.464,81.82Z" transform="translate(1242.33 244.49)" fill="#f9a319"/>
          <path id="Vector-12" data-name="Vector" d="M.19,10.828C.774,5.064,6.267,1.7,10.159.741c8.75-2.161,17.494.481,21.869,6.965,3.819,5.655-.483,13.93-4.375,17.052.73-10.808-3.4-14.651-12.395-13.209S3.593,18.513,3.11,23.317C.92,21.636-.54,18.033.19,10.828Z" transform="translate(1268.654 310.434)" fill="#f9a319"/>
          <path id="Vector-13" data-name="Vector" d="M16.393.291C7.4,1.731,4.729,7.256,4.24,12.059c.814,10.007,2.286,33.528,1.7,47.553-.724,17.532-1.7,23.537-4.858,31.222S2.1,106.5,8.177,105.061,19.213,96.6,17.758,90.834a21.021,21.021,0,0,1,2.426-15.611c2.432-4.083,8.6-39.147,8.6-61.723C29.518,2.692,25.385-1.151,16.393.291Z" transform="translate(1267.517 321.692)" fill="#ffd0b7"/>
          <path id="Vector-14" data-name="Vector" d="M44.519,49.472C48.725,16.322,63.288,6.549,74.762,0c-9.592,5.107-31.22,10.991-47,38.736C14.366,62.3,4.184,68.507,0,69.608c5.055,4.68,13.81,18.753,12.973,27.782,5.442-3.964,21.038-17.268,28.35-23.142C42.357,66.323,43.429,58.031,44.519,49.472Z" transform="translate(1127.4 238.384)" fill="#ffaf2e"/>
          <path id="Vector-15" data-name="Vector" d="M29.013,24.776C30.046,16.851,31.119,8.559,32.208,0c-2.982,14.974-14.243,23.8-20.42,25.937C6.84,27.646,1.865,37.03,0,41.507a19.308,19.308,0,0,1,.663,6.412C6.1,43.954,21.7,30.65,29.013,24.776Z" transform="translate(1139.709 287.856)" fill="#f9a319"/>
          <path id="Vector-16" data-name="Vector" d="M12.709,17.627C9.25,6.939,4.173,3.615,2,3.259a12.336,12.336,0,0,1,5.026-3C10-.543,18.387.259,22.172,6.4c3.207,5.2,6.762,13.627,0,21.911C16.764,34.942,5.139,34.283,0,33.125,5.678,32.413,15.826,27.247,12.709,17.627Z" transform="translate(1122.92 305.039)" fill="#f9a319"/>
          <path id="Vector-17" data-name="Vector" d="M83.573,66.808c5.678-.713,15.826-5.879,12.709-15.5-2.488-7.687-5.756-13.148-10.7-14.369-1.168.431-3.465,1.383-12.552-2.465C61.67,29.666,24.624,12.832,21.92,10.427S13.267-.261,4.885.006s-5.408,15.5,4.6,18.17,18.388,9.887,23.255,15.231S63.833,64.67,83.573,66.808Z" transform="translate(1039.345 271.356)" fill="#ffd0b7"/>
          <path id="Vector-18" data-name="Vector" d="M.045,27.489V10.915L22.858,0V25.645C12.687,44.38-.882,39.611.045,27.489Z" transform="translate(1201.857 210.907)" fill="#ffd0b7"/>
          <path id="Vector-19" data-name="Vector" d="M2.522,9.709,22.813,0V25.645c-.017.037-.039.074-.056.111a39.373,39.373,0,0,1-3.145,4.908C15.837,25.048,5.858,16.334,0,11.982v-.861Z" transform="translate(1201.903 210.907)" fill="url(#linear-gradient)"/>
          <path id="Vector-20" data-name="Vector" d="M0,14.932c0,9.727,4.937,10.911,8.57,10.4L30.788,49.2a11.052,11.052,0,0,1,2.746,7.625c0,5.065,4.032-5.447,7.02-7.625,6.189-4.508,10.4-4.642,12.355-12.077,1.685-6.382-.691-10.9-2.64-11.8-1.168-.513-2.415-1.617-4.285-1.925s-2.342-3.466-2.342-5.006c-.129-1.155-.635-2.762-3.617-4.621-1.853-1.155-6.644-1.669-8.464,0-1.168.642-3.819,1.31-5.066-1.155s-3.9-1.541-5.066-.771C18.005,13.083,10.058,9.464,6.97,0,3.263,4.885,0,8.243,0,14.932Z" transform="translate(1190.58 165.11)" fill="#2b2b39"/>
          <path id="Vector-21" data-name="Vector" d="M16.736,1.926C15.568,1.412,14.321.308,12.451,0c9.637,7.087,1.87,18.442-4.308,21.494C3.2,23.936.657,30.465,0,33.426,0,38.49,4.032,27.978,7.02,25.8c6.189-4.508,10.4-4.642,12.355-12.076C21.06,7.342,18.685,2.824,16.736,1.926Z" transform="translate(1224.115 188.515)" fill="#13131c"/>
          <path id="Vector-22" data-name="Vector" d="M14.461,11.851C11.036,13.083,3.089,9.464,0,0,.056,5.693,2.864,16.65,13.647,14.932c1.685-.558,3.65-1.668,5.9.552s7.93-2.863,13.512-1.708c-1.853-1.155-6.644-1.669-8.464,0-1.168.642-3.819,1.309-5.066-1.155S15.635,11.081,14.461,11.851Z" transform="translate(1197.552 165.11)" fill="#13131c"/>
          <path id="Vector-23" data-name="Vector" d="M16.234,35.328c9.042-2.773,12.6-9.114,13.248-11.937a26.774,26.774,0,0,0,.781-5.776c-.938-2.773-3.768,1.155-5.066,3.466-1.735,3.081-2.05-7.7,0-10.4,2.8-3.7-1.561-4.676-3.51-5.776a9.566,9.566,0,0,0-6.234-.77,3.94,3.94,0,0,1-4.678-1.926c-1.039-1.668-3.74-4-6.234,0-5.925,8.934-4.807,20.666-3.5,25.416C2.334,31.349,7.192,38.1,16.234,35.328Z" transform="translate(1194.224 187.459)" fill="#ffd0b7"/>
        </g>
      </g>
    </g>
    <g id="Avater-3" data-name="Avater">
      <g id="Ellipse_9-4" data-name="Ellipse 9" clip-path="url(#clip-path-2)">
        <g id="Group_6" data-name="Group 6" transform="translate(-12 2)">
          <circle id="Ellipse_5" data-name="Ellipse 5" cx="97.659" cy="97.659" r="97.659" transform="translate(731.154 186.93)" fill="#fff"/>
          <circle id="Ellipse_6" data-name="Ellipse 6" cx="96.659" cy="96.659" r="96.659" transform="translate(732.154 187.93)" fill="none" stroke="rgba(33,123,244,0.6)" stroke-width="2"/>
        </g>
        <g id="Group_1000000774" data-name="Group 1000000774">
          <path id="Vector-24" data-name="Vector" d="M23.455,12.068c-5.974,1.811-13.383,4.37-18.882,3.035C.166,14.032.5,12.64,0,9.72,1.4,7.35,7.3,2.8,18.731.472,33.016-2.432,33.96,8.882,23.455,12.068Z" transform="translate(905.168 293.999)" fill="#febe9d"/>
          <path id="Vector-25" data-name="Vector" d="M17.7,4.832C15.945.559,11.106-.153,8.907.024c-16.024,6.41-6.284,52.62-2.514,58.764s8.169,8.548,12.568,10.417,13.2.8,15.4-.534S37.184,66,39.7,65.733s6.6-1.068,8.169-2.671,2.828-3.205,6.6-3.205,6.912-2.671,8.169-4.273,2.2-1.87,4.4-2.4,4.4-.534,5.027-3.205a40.756,40.756,0,0,0,.628-10.684c-.314-2.671-.314-2.671-1.885-2.4s-5.655,2.4-6.912,2.4a15.035,15.035,0,0,0-5.655.534c-2.2.8-9.426,3.74-14.139,5.075s-11.625,1.6-11-.267,2.828-7.212-1.571-7.212-4.4-2.938-6.284-9.082S19.9,10.175,17.7,4.832Z" transform="translate(845.962 258.554)" fill="#217bf4"/>
          <path id="Vector-26" data-name="Vector" d="M1.257,2.4C2.2,1.6,4.65,0,6.912,0Zm2.2,1.335L5.969,2.671ZM.314,7.479C1.78,7.3,5.09,6.624,6.6,5.342ZM0,11.218c1.361-.089,4.461-.641,5.969-2.137" transform="translate(910.168 298.378)" fill="none" stroke="#2068d9" stroke-width="1.079"/>
          <path id="Vector-27" data-name="Vector" d="M65.059,45.377a18.092,18.092,0,0,1-.539-8.033,29.809,29.809,0,0,1-4.713,8.814c-2.828,3.205-6.284,2.938-6.912.267s-4.4-1.068-5.655,2.137-4.085,7.212-8.8,7.479A20.917,20.917,0,0,0,30.523,57.8l-.251.107c-1.257.534-.943-1.6.314-2.938S33.414,50.165,33.1,48.3c-1.571,2.938-4.713,6.945-9.74,8.28s-7.855-1.87-4.085-4.808,6.6-5.609,7.541-8.013c.356-.909-.14-.6-1.133.029-1.634,1.029-4.614,2.9-7.35,1.574-4.4-2.137-3.77-8.28-.314-9.349a21.8,21.8,0,0,1,4.529-.541c3.779-.22,8.126-.472,8.981-3.2-1.885,1.068-12.882,2.671-13.2-4.007S17.39,17.044,15.819,13.3A20.277,20.277,0,0,1,14.8,8.743c-.513-3.408-1.068-7.1-4.006-8.526-.839-.407-4.306-.252-9.045.57-4.88,15.634,1.7,44.85,4.646,49.646,3.77,6.143,8.169,8.548,12.568,10.417s13.2.8,15.4-.534a16.688,16.688,0,0,0,1.774-1.273A6.157,6.157,0,0,1,39.7,57.377c2.514-.267,6.6-1.068,8.169-2.671.113-.115.224-.23.335-.345A7.456,7.456,0,0,1,54.465,51.5c3.77,0,6.912-2.671,8.169-4.273A5.064,5.064,0,0,1,65.059,45.377Z" transform="translate(845.962 266.91)" fill="#1771ea"/>
          <path id="Vector-28" data-name="Vector" d="M9.438,46.828c1.562-1.735,4.214-4.174,6.7-4.877,3.77-1.068,1.885-1.6-1.257-.534s-3.77.267-4.084-3.205.943-9.616,2.828-13.89,4.4-17.629-.943-22.7C10.221-.717,5.038-.452.188,1.945-1.025,17.858,3.944,38.76,6.394,42.751A26.518,26.518,0,0,0,9.438,46.828Z" transform="translate(845.962 274.59)" fill="#2068d9"/>
          <path id="Vector-29" data-name="Vector" d="M.349,11.486C3.114,8.28,2.758,2.493,2.234,0c.838,2.137,2.011,7.158,0,10.15C-.279,13.89-.279,12.287.349,11.486Z" transform="translate(907.618 298.378)" fill="#3881f2"/>
          <path id="Vector-30" data-name="Vector" d="M55.253,138.214c9.3-3.633,21.679-1.87,26.706-.534.629.16,1.257,0,2.513-3.739s.314-13.088,0-13.889a3.824,3.824,0,0,1,0-2.671c1.571-8.815-4.4-29.916-6.912-41.668s.943-22.7,4.4-30.717.628-18.43-.314-29.114S70.02,4.395,55.567,1.456,22.577-1.481,14.408,16.147s-.629,40.6,0,53.688-5.655,24.306-9.74,35.792S1.526,125.66.269,133.139c-1.005,5.983,1.047,8.548,2.2,9.082.1,1.335.314,4.915.314,8.547,0,4.541,1.885,6.945,6.6,6.678s12.254-2.938,18.852-7.212S43.628,142.755,55.253,138.214Z" transform="translate(776.995 248.842)" fill="#217bf4"/>
          <path id="Vector-31" data-name="Vector" d="M23.25,11.753C14.7,18.163,4.189,16.916,0,15.492c0,1.158,2.011,4.06,10.054,6.411,10.054,2.938,16.966-3.74,19.794-9.082C32.111,8.547,37.075,2.493,39.274,0,37.494,1.246,31.8,5.342,23.25,11.753Z" transform="translate(809.313 324.821)" fill="#3881f2"/>
          <path id="Vector-32" data-name="Vector" d="M81.96,137.208c-5.027-1.335-17.406-3.1-26.707.534q-1.914.748-3.727,1.45c-9.8,3.807-17.42,6.766-23.293,10.57-6.6,4.273-14.139,6.945-18.852,7.212s-6.6-2.137-6.6-6.678c0-3.633-.209-7.212-.314-8.548-1.152-.534-3.205-3.1-2.2-9.081.4-2.4.58-4.906.769-7.585.4-5.677.855-12.124,3.63-19.927.945-2.657,2.008-5.3,3.075-7.955,3.547-8.821,7.148-17.777,6.665-27.837-.167-3.469-.819-7.632-1.536-12.207C10.886,44.473,8.4,28.632,14.408,15.676q.155-.333.314-.658C27.073,5.177,39.322.986,49.59,0c2.042.252,4.047.593,5.977.985,1.547.314,3.051.6,4.5.885,5.628,1.085,10.5,2.024,14.185,3.673a6.914,6.914,0,0,1,1.419,1.852c4.4,8.814-4.713,18.964-11.939,24.039s-5.655,7.211,2.514,5.074c7.24-1.894,6.089-1.27-2.8,3.546q-1.709.927-3.8,2.063C47.4,48.8,61.223,46.123,71.277,43.987s8.169,2.938,5.97,5.075a10.918,10.918,0,0,1-2.864,1.874c-1.264.637-2.3,1.158-2.478,2.4-.314,2.137-2.514,4.54-5.341,5.609q-.335.127-.681.254c-2.683,1-5.752,2.136-7.488,5.088-1.885,3.205-6.6,3.739-12.253,3.472s-13.2,1.87-6.284,7.479,16.652,1.6,21.679-.534C49.912,86.99,33.259,77.908,30.118,73.634s-4.713-5.609-8.8-4.541-5.341,6.142-1.571,7.211a12.213,12.213,0,0,0,4.814.1c1.774-.213,3.04-.366,3.04.973,0,2.035-4.952,5.6-9.332,8.754-.794.572-1.57,1.13-2.293,1.663-4.713,3.472.628,6.41,4.084,7.479s2.514,2.4-3.142,7.747c-7.855,7.747,7.226,14.958,21.051,6.678,11.06-6.624,20.736-7.212,24.193-6.678-3.98.98-13.636,4.488-20.422,10.684-5.72,5.223-13.3,6.682-20.035,7.978a57.068,57.068,0,0,0-8.871,2.172c-7.855,2.938-3.77,8.814,2.828,9.081,3.519.143,9.721-3.211,16.839-7.06,6.227-3.367,13.157-7.114,19.607-9.233a39.356,39.356,0,0,1,28.277.8c-8.169-.534-31.105,6.143-43.044,12.821A58.284,58.284,0,0,1,23.506,135.8c-4.013,1.147-7.4,2.116-11.3,5.15-7.541,5.876,2.514,9.883,9.74,8.815,3.229-.478,7.773-3.087,12.963-6.067,6.427-3.69,13.843-7.948,20.97-9.426,9.534-1.977,21.594.161,27.576,1.761C82.822,137.277,82.391,137.318,81.96,137.208Z" transform="translate(776.995 249.314)" fill="#1771ea"/>
          <path id="Vector-33" data-name="Vector" d="M3.368,56.779a52.065,52.065,0,0,0,4.177-5.669c1.571-2.671,2.513-3.74,4.713-1.87a5.493,5.493,0,0,0,7.541-.534q-.056.221-.111.436c-.894,3.508-1.515,5.943,4.823,5.173a43.642,43.642,0,0,1,8.861.462c5.941.675,11.511,1.308,9.677-2.331-2.828-5.609-4.713-19.231.943-24.039a54.2,54.2,0,0,0,9.74-11.486C56.245,11.847,55.993,1.964,34.88,3.032,26.5,3.456,17.357,1.7,8.8,0A28.371,28.371,0,0,0,3.774,7.572c-6,12.956-3.522,28.8-1.535,41.481C2.669,51.8,3.076,54.392,3.368,56.779Z" transform="translate(787.629 257.418)" fill="#2068d9"/>
          <path id="Vector-34" data-name="Vector" d="M40.217,6.747c6.535.214,7.96-3.828,7.855-5.876,0-1.6,1.885-1.6.943,5.342S36.76,9.419,27.021,10.22,3.456,17.166,0,19.035C16.967,6.48,32.048,6.48,40.217,6.747Z" transform="translate(806.485 369.89)" fill="#3881f2"/>
          <path id="Vector-35" data-name="Vector" d="M0,24.841a51.584,51.584,0,0,0,.943,9.883Zm7.541-3.472c.733,2.4,2.136,7.746,1.885,9.883ZM12.568,18.7a53.409,53.409,0,0,1,1.571,12.821Zm6.284.534v0Zm5.027-3.739c.629,1.6,1.7,5.555.943,8.547Zm5.027-2.938a38.607,38.607,0,0,1,1.571,8.815Zm6.284-1.6v0Zm5.969-3.473c.524,2.315,1.257,7.8,0,11.218Zm4.4-1.335c.733,1.514,2.074,5.342,1.571,8.547ZM53.1,4.808v0Zm4.085-2.137a90.47,90.47,0,0,1,.943,10.951Zm8.483,3.205c.1,2.137.126,6.891-.628,8.814ZM69.437,0a52.007,52.007,0,0,1,1.571,15.492" transform="translate(784.489 367.824)" fill="none" stroke="#2068d9" stroke-width="1.079"/>
          <path id="Vector-36" data-name="Vector" d="M0,21.827C20.527,12.479,63.907-5.31,71.95,1.528" transform="translate(787.633 366.031)" fill="none" stroke="#3881f2" stroke-width="1.079"/>
          <path id="Vector-37" data-name="Vector" d="M.269,37.662c-1.005,5.983,1.047,8.547,2.2,9.081.05.637.124,1.785.187,3.205,2.87-2.315,9.239-7.265,11.752-8.548C9.7,42.737,3.471,45.408,2.656,39.531s2.326-12.02,4.211-15.225S11.007,11.485,8.623,0C7.269,3.4,5.873,6.762,4.668,10.15.584,21.635,1.526,30.183.269,37.662Z" transform="translate(776.995 344.319)" fill="#2068d9"/>
          <path id="Vector-38" data-name="Vector" d="M.033,21.322C.462,15.094,1.554,7.52,4.757,2.855,7.324-.884,8.507-.08,11.414.493c1.718,2.147,4.681,9.319,2.791,20.829C11.843,35.709-.722,32.273.033,21.322Z" transform="translate(754.289 374.092)" fill="#febe9d"/>
          <path id="Vector-39" data-name="Vector" d="M.186,131.5a14.353,14.353,0,0,0,.943-3.205c.943-6.945,0-13.622,0-25.107S3.957,79.679,6.47,75.4s1.885-8.013,3.142-10.15,5.027-4.541,3.77-11.753,3.142-8.013,3.456-17.095,2.2-20.567,8.169-28.581S52.97-5.528,55.17,9.7,49.2,35.072,45.744,41.749s-7.855,21.1-8.483,24.841S33.8,81.014,33.8,85.555s-1.257,12.821-3.142,20.033-5.97,16.026-7.226,16.827-1.885,1.336-1.885,2.671a68.073,68.073,0,0,1-.943,7.479c-.314,1.6-.629,2.137-1.571,1.6s-2.514-.534-5.341-.534-7.541.534-10.368.267S-.442,132.832.186,131.5Z" transform="translate(752.571 255.026)" fill="#217bf4"/>
          <path id="Vector-40" data-name="Vector" d="M10.054,1.138C4.022,2.42.838,1.316,0,.6A19.667,19.667,0,0,0,9.426.6,18.465,18.465,0,0,1,17.595.336,36.041,36.041,0,0,0,10.054,1.138Z" transform="translate(754.957 378.174)" fill="#3881f2"/>
          <path id="Vector-41" data-name="Vector" d="M.628,2.4A6.51,6.51,0,0,1,0,6.945Zm4.4-1.87L4.713,6.411ZM11.625,0c-.314,1.068-.691,3.473.314,4.541a1.5,1.5,0,0,1-.314,2.4" transform="translate(757.785 379.844)" fill="none" stroke="#2068d9" stroke-width="1.079"/>
          <path id="Vector-42" data-name="Vector" d="M5.673,133.685a10.424,10.424,0,0,0,1.554-5.661c-.314-3.205-4.713-4.273-7.226-3.739,3.142-1.335,10.054-4.273,11.939-10.951s1.257-10.684-4.713-11.218c-1.257,0-2.514-.267,1.885-3.473s11.311-9.348,4.713-13.088-11-6.678-11.939-10.684c3.142,2.137,6.912,4.541,8.483,4.808,1.359.231,1.307.062.659-2.061-.1-.332-.217-.711-.345-1.144C9.74,73.268,7.541,65.255,7.541,62.851c.943,2.938,2.514,7.479,6.6,9.349s5.341-3.205,4.713-6.678-.943-6.143,3.142-9.082,10.682-13.355,5.969-17.9-13.2-12.821-12.882-19.231c.244-4.984-.271-6.577-2.58-9.55q.625-1,1.323-1.935C18.091,2.1,30.541-2.262,38.1,1.272q1.06.639,2.1,1.3A10.7,10.7,0,0,1,43.987,9.7c1.831,12.676-3.525,21.833-7.364,28.4-.772,1.32-1.483,2.536-2.062,3.654-3.456,6.678-7.855,21.1-8.483,24.841-.194,1.158-.6,2.981-1.067,5.081-1.041,4.685-2.389,10.748-2.389,13.883,0,4.541-1.257,12.821-3.142,20.033s-5.97,16.026-7.226,16.827-1.885,1.336-1.885,2.671a68.073,68.073,0,0,1-.943,7.479c-.314,1.6-.629,2.137-1.571,1.6A5.108,5.108,0,0,0,5.673,133.685Z" transform="translate(763.755 255.026)" fill="#1771ea"/>
          <path id="Vector-43" data-name="Vector" d="M19.278,0a105.009,105.009,0,0,0-3.254,11.538c-.195,1.158-.6,2.981-1.067,5.081C13.916,21.3,12.568,27.368,12.568,30.5a48.162,48.162,0,0,1-.348,5.2c-1.665-3.266-4.342-6.862-7.821-7.6-5.439-1.156-2.168-1.111.236-1.079.373.005.726.01,1.021.01,2.2,0,3.142-1.069.628-2.4C4.273,23.559,1.257,17.771,0,15.011c1.362,2.76,5.341,8.28,10.369,8.28,1.571,0,2.828-1.335,1.885-4.006C11.416,16.911,14.051,6.736,19.278,0Z" transform="translate(773.809 310.076)" fill="#2068d9"/>
          <path id="Vector-44" data-name="Vector" d="M0,12.423,2.185,0,17.751,3.241c-.364,1.62-.328,6.644.546,12.694s3.459,9.272,4.916,10.263Z" transform="translate(809.676 233.657)" fill="#febe9d"/>
          <path id="Vector-45" data-name="Vector" d="M0,0,15.249,3.232a35.964,35.964,0,0,0,.039,8.349C4.4,10.288.561,3.322,0,0Z" transform="translate(811.996 233.657)" fill="#f2ad8a"/>
          <path id="Vector-46" data-name="Vector" d="M.081,8.732c-.572-3.723,2-4.521,4.292-5.585C5.77,2.5,7.487,1.651,8.092,0,12.108,1.573,16.125,1.969,22.4,1.161c.286,3.765.915,12.464,1.144,17.145.286,5.851,2.289,15.158-4.292,11.967s-8.583-3.457-11.73-2.659-5.436,0-5.722-5.053S.653,9.8.081,8.732Z" transform="translate(803.25 279.18)" fill="#8cb9ff"/>
          <path id="Vector-47" data-name="Vector" d="M6.969,27.762A23.134,23.134,0,0,1,5.19,16.731c.568-6.657,2.271-11.982,4.258-6.923a32.943,32.943,0,0,1,1.987,10.65c1.136-.621,3.463-3.248,3.69-8.787.284-6.923.568-6.657,1.419-2.663s1.135,4.527,1.987,0c.114-.6.207-1.152.292-1.649.539-3.155.724-4.237,3.509-4.713-.041-.551-.078-1.05-.11-1.485C16,1.972,12.014,1.575,8.028,0c-.6,1.653-2.3,2.5-3.69,3.151-.189.089-.381.176-.572.263C1.663,4.37-.44,5.326.08,8.743.648,9.808,1.5,17.53,1.783,22.589,2.052,27.378,4.1,28.349,6.969,27.762Z" transform="translate(803.25 279.18)" fill="#7eaefa"/>
          <path id="Vector-48" data-name="Vector" d="M.639,11.166c1.077-2.26,2.962-5.374,4.847-5.9,2.845-.8,3.414-1.327,4.268-2.124s1.707-.265,1.991.8,1.138,0,1.992-1.062,2.561-.266,2.845.531c.1.284.457.095,1.067-.23a8.572,8.572,0,0,1,4.683-1.225c-.021-.283-.041-.549-.059-.793C16.035,1.966,12.041,1.571,8.047,0c-.6,1.648-2.309,2.493-3.7,3.142-.189.088-.381.175-.573.262C1.667,4.357-.441,5.31.08,8.716A10.964,10.964,0,0,1,.639,11.166Z" transform="translate(803.25 279.18)" fill="#70a2f2" opacity="0.5"/>
          <path id="Vector-49" data-name="Vector" d="M28.319,53.254C17.952,51.971,9.659,43.067,6.9,38.968,1.387,40.305.284,39.5.008,35.76S6.9,30.146,8.28,24a32.245,32.245,0,0,1,19.3-22.989C40.818-4.337,52.124,13.039,52.4,18.385s-.548,18.067-3.861,25.395C45.033,51.536,41.28,54.858,28.319,53.254Z" transform="translate(795.746 187.703)" fill="#febe9d"/>
          <path id="Vector-50" data-name="Vector" d="M30.641,2.362C25.158,3.7,23.869,3.73,23.6,0,18.386,1.066,7.145,4.949,3.855,11.956c-4.113,8.758,0,10.156,2.742,11.489S7.968,28.506,4.4,29.039.565,26.908.291,25.31C-1.354,32.5,4.4,32.5,6.871,31.437c-1.645,4.263-1.1,7.46,2.742,8.525s0,5.062,0,8.792S13.725,54.615,14,57.279s3.564,4,6.854,5.062,1.919,2.4.549,4.8.822,4.263,1.1,7.46,2.467,3.463,5.209,4c-2.742-4.529-1.1-6.127.549-7.46l.051-.041c1.622-1.313,2.959-2.4,2.416-6.086-.549-3.73,1.919-4.529,4.113-5.595s5.209-2.664,3.016-7.459,4.661-7.993,6.306-12.788-2.193-10.657-3.838-12.788a35.352,35.352,0,0,1-3.838-6.66c-.548-1.332,0-1.332.274-1.066,1.371,1.332,1.645.266,1.919-1.066.219-1.066.457-4.2.548-5.628C35.042,8.986,32.141,4.6,30.641,2.362Z" transform="translate(772.535 223.778)" fill="#2b2b39"/>
          <path id="Vector-51" data-name="Vector" d="M0,6.927V3.48c6.816.482,10.707-.77,13.489-3.48,5.657,6.66.649,12.522-.174,13.854a9.068,9.068,0,0,0-5.758-2.931c-.822,0-1.645.266-2.467-1.066s-1.1-2.931-2.742-4C1.033,5.009.234,6.217,0,6.927Z" transform="translate(826.953 237.632)" fill="#2b2b39"/>
          <path id="Vector-52" data-name="Vector" d="M0,0C1.659,1.214,4.508,4.633,2.634,8.589" transform="translate(795.75 238.38)" fill="none" stroke="#151523" stroke-width="0.8"/>
          <path id="Vector-53" data-name="Vector" d="M0,0C3.542,2.728,9.8,9.5,6.494,14.783c-4.132,6.6-5.018,8.975-5.018,13.991" transform="translate(803.175 241.386)" fill="none" stroke="#151523" stroke-width="0.8"/>
          <path id="Vector-54" data-name="Vector" d="M0,22.762c1.891-.794,5.05-4.076,2.553-10.851S3.215,1.147,5.106,0" transform="translate(796.21 251.265)" fill="none" stroke="#151523" stroke-width="0.8"/>
          <path id="Vector-55" data-name="Vector" d="M3.019,0c-2.278,2.2-5.467,7.07,0,8.97,6.834,2.374,8.474,4.749,6.287,9.5" transform="translate(783.677 253.841)" fill="none" stroke="#151523" stroke-width="0.8"/>
          <path id="Vector-56" data-name="Vector" d="M0,0C.7.82,1.682,3.17,0,6.012" transform="translate(785.532 267.154)" fill="none" stroke="#151523" stroke-width="0.8"/>
          <path id="Vector-57" data-name="Vector" d="M1.162,0c-.943.89-2.2,3.312.314,5.876C4.618,9.082,4.3,10.951,2.733,13.088" transform="translate(780.813 238.012)" fill="none" stroke="#151523" stroke-width="0.8"/>
          <path id="Vector-58" data-name="Vector" d="M8.282.443a38.007,38.007,0,0,0-3.4,5.38,16.147,16.147,0,0,0-1.752,5.2A5.518,5.518,0,0,0,4.211,15.38q.358.426.7.825a29.35,29.35,0,0,1,2.266,2.879,4.083,4.083,0,0,1,.831,3.1C7.788,23.209,7,24.312,5.315,25.62a35.813,35.813,0,0,1-5,3.111q-.174.4-.317.8a38.931,38.931,0,0,0,5.739-3.513c1.733-1.346,2.633-2.547,2.886-3.73a4.541,4.541,0,0,0-.9-3.457,30.089,30.089,0,0,0-2.32-2.95h0q-.336-.395-.684-.808a5.051,5.051,0,0,1-.964-3.99,15.683,15.683,0,0,1,1.7-5.044A38.879,38.879,0,0,1,9.368,0Q8.824.214,8.282.443Z" transform="translate(780.024 226.527)" fill="#1c1c2a" opacity="0.5"/>
          <path id="Vector-59" data-name="Vector" d="M.836,0a20.351,20.351,0,0,0-.8,6.887A14.831,14.831,0,0,0,4.4,16.868c3.7,3.6,5.007,6.151,5.007,8.351S8.1,29.37,6.3,31.794a11.65,11.65,0,0,0-2.733,7.739c.123,2.521,1.16,5.383,3.355,8.938a8.739,8.739,0,0,0-.674-2.051,5,5,0,0,1-.272-.741,15.491,15.491,0,0,1-1.86-6.172,11.129,11.129,0,0,1,2.629-7.4c1.778-2.4,3.215-4.478,3.215-6.889s-1.443-5.1-5.168-8.73A14.3,14.3,0,0,1,.582,6.856,19.875,19.875,0,0,1,1.265.49Q1.044.242.836,0Z" transform="translate(804.36 229.293)" fill="#1c1c2a" opacity="0.5"/>
          <path id="Vector-60" data-name="Vector" d="M16.044,75.157a10.384,10.384,0,0,1-1.462-2.182,6.991,6.991,0,0,1-.055-6.407c1.376-2.8.872-5.3.408-7.594-.062-.306-.123-.61-.179-.91a9.51,9.51,0,0,1-.13-3.73,7.052,7.052,0,0,1,2.318-3.765,6.265,6.265,0,0,0,2.169-4.315,15.928,15.928,0,0,0-.354-3.843c-.039-.228-.079-.457-.117-.686a13.1,13.1,0,0,1-.109-4.825,10.484,10.484,0,0,1,3.095-5.362l.008-.008.007-.009a5.9,5.9,0,0,0,.805-5.812,12.907,12.907,0,0,0-4.511-5.949c.651-1.242,1.094-4.21-1.219-8.1a15.369,15.369,0,0,1-2.541-6.912A8.17,8.17,0,0,1,15.415.066,4.246,4.246,0,0,1,14.822,0a8.624,8.624,0,0,0-1.2,4.769,15.861,15.861,0,0,0,2.615,7.156c2.341,3.94,1.7,6.784,1.135,7.714a18.865,18.865,0,0,0-5.737,6.148,12.707,12.707,0,0,0-1.375,9.986c-.092-.039-.186-.077-.281-.115C6.308,34.2,5.055,32.519,4.929,30.928c-.129-1.628.9-3.3,2.139-4.767a17.266,17.266,0,0,0,3.525-6.2A7.126,7.126,0,0,0,8.419,12.4,7.219,7.219,0,0,1,6.194,6.258,12.776,12.776,0,0,1,7.916.942L7.443.668a13.308,13.308,0,0,0-1.8,5.549,7.746,7.746,0,0,0,2.4,6.572,6.6,6.6,0,0,1,2.02,7.038,16.752,16.752,0,0,1-3.419,5.995C5.4,27.3,4.234,29.114,4.381,30.969c.149,1.893,1.645,3.7,5.4,5.185q.432.172.807.352a5.488,5.488,0,0,1,2.561,2.122,3.244,3.244,0,0,1,.281,2.36c-.375,1.677-1.716,3.423-2.938,4.961l-.154.194c-.235.3-.463.582-.673.855a7.017,7.017,0,0,0-1.808,4.455A6.9,6.9,0,0,0,8.9,54.7,16.2,16.2,0,0,1,6.383,52.47a5.794,5.794,0,0,1-1.653-4.224,6.77,6.77,0,0,1,.722-2.58A13.657,13.657,0,0,0,6.7,42.231a3.683,3.683,0,0,0-.362-2.645A4.232,4.232,0,0,0,3.9,37.912,15.922,15.922,0,0,0,0,37.284a1.6,1.6,0,0,1,.254.554,14.778,14.778,0,0,1,3.471.583,3.7,3.7,0,0,1,2.137,1.441,3.167,3.167,0,0,1,.291,2.278,13.166,13.166,0,0,1-1.2,3.3,7.3,7.3,0,0,0-.773,2.755c-.289,1.166-.718,3.033-1.076,4.88-.041.213-.082.426-.121.638q.012.074.019.148a3.33,3.33,0,0,0,.317,1.118c.1-.579.206-1.189.325-1.8.221-1.138.469-2.284.694-3.267a7.063,7.063,0,0,0,1.625,2.915A21.4,21.4,0,0,0,9.718,55.95l.39-.365A7.911,7.911,0,0,1,8.4,51.44a6.506,6.506,0,0,1,1.7-4.12q.133-.173.274-.352a21.955,21.955,0,0,0,.154,3.428,13.882,13.882,0,0,0,1.588,5.2c.812,1.384.491,3.018-.309,4.556l0,0a1.35,1.35,0,0,1,.02,1.056c.168-.266.328-.539.473-.819.832-1.6,1.245-3.446.3-5.063a13.373,13.373,0,0,1-1.52-5,20.445,20.445,0,0,1-.1-4.117c1.192-1.5,2.591-3.32,2.992-5.113a3.766,3.766,0,0,0-.335-2.729,5.925,5.925,0,0,0-2.7-2.3,12.147,12.147,0,0,1,1.189-10.03,18.38,18.38,0,0,1,5.448-5.887,12.389,12.389,0,0,1,4.355,5.714,5.385,5.385,0,0,1-.7,5.3A11.008,11.008,0,0,0,17.992,36.8,13.6,13.6,0,0,0,18.1,41.81q.059.355.119.7a15.371,15.371,0,0,1,.346,3.7,5.738,5.738,0,0,1-2,3.966,7.578,7.578,0,0,0-2.477,4.047,10.022,10.022,0,0,0,.128,3.932c.058.308.119.617.182.925.462,2.3.927,4.618-.365,7.251a7.513,7.513,0,0,0,.055,6.869A10.551,10.551,0,0,0,15.2,74.983C15.472,75.043,15.754,75.1,16.044,75.157Z" transform="translate(783.677 227.213)" fill="#1c1c2a" opacity="0.5"/>
          <path id="Vector-61" data-name="Vector" d="M0,12.086c2.721-1.833,5.606-3.208,6.325-1.66,1.366,2.94,4.1,1.07,4.917-1.069s1.093-1.6,2.459,1.6c.585,1.373.969.689,1.5-.25.7-1.254,1.663-2.961,3.694-.82,1.712,1.8,3.3.006,4.785-1.682,1.6-1.815,3.088-3.5,4.5-.456a50.661,50.661,0,0,1,2.225,6.122,37.009,37.009,0,0,0,1.944,5.284c-.148-.7.254-.664.475-.447,1.366,1.336,1.639.267,1.913-1.07.219-1.069.455-4.21.546-5.646a38.2,38.2,0,0,1-8.821-9.634C21,3.7,19.985,3.742,19.711,0,14.521,1.07,3.32,4.966.042,12Z" transform="translate(776.712 223.778)" fill="#1c1c2a"/>
          <path id="Vector-62" data-name="Vector" d="M.235,1.209C-.314-.128.235-.128.509.14c.621.6,1.017.717,1.29.535,1.856,1.782,6.118,5.772,8.313,7.482s7.865,3.563,10.426,4.276c-.927-1.87-2.694-6.52-2.35-10.155.234-.712,1.033-1.924,2.35-1.069,1.646,1.069,1.921,2.672,2.744,4.008s1.646,1.069,2.469,1.069a9.067,9.067,0,0,1,5.762,2.94,10.562,10.562,0,0,0,3.292,1.6c1.921.535,4.39,3.207,3.566,5.879s-4.115,5.345-5.761,8.284-4.115,11.759-12.62,13.362c-1.482.279-2.847.5-4.115.676-6.015.812-9.866.415-13.718-1.166a5.742,5.742,0,0,0-.548-4.32c-2.195-4.81,4.664-8.017,6.31-12.827S5.722,10.027,4.076,7.889A35.465,35.465,0,0,1,.235,1.209Z" transform="translate(808.747 242.316)" fill="#8cb9ff"/>
          <path id="Vector-63" data-name="Vector" d="M0,8.587c1.557,2.165,4.592,5.188,8.371,5.546,5.614.533,6.415-4.525,5.881-6.921-2.406,1.864-6.683,3.461-6.416-.266.037-.519.08-1.012.12-1.482.19-2.215.336-3.9-.322-5.292-1.163-.6-1.871.513-2.088,1.185-.335,3.62,1.387,8.251,2.29,10.115A55.014,55.014,0,0,1,0,8.587Z" transform="translate(821.281 243.105)" fill="#7eaefa"/>
          <path id="Vector-64" data-name="Vector" d="M3.482,28.008c-.8-.206-1.579-.449-2.362-.73.424-1.058.351-2.444-.628-4.318-1.54-2.945.81-5.288,3.3-7.767,1.573-1.568,3.2-3.191,3.93-5.054C9.057,6.724,7.225,2.77,5.376,0A82.624,82.624,0,0,0,14,4.263c4.085,1.6,3.142,4.541-2.2,1.87-2.2-1.068-2.2,2.4,2.2,4.274s12.568,1.6,15.4-4.808,6.284-5.609,4.085.534-6.6,12.821-10.054,14.958c-1.674,1.035-4.086,1.318-6.556,1.608-2.629.309-5.325.625-7.269,1.864C6.711,26.407,5.9,27.907,5.836,28.5c-.494-.079-.979-.171-1.458-.276Z" transform="translate(815.419 252.714)" fill="#7eaefa"/>
          <path id="Vector-65" data-name="Vector" d="M1.184,17.178A6.394,6.394,0,0,0,.44,13.621c-1.378-2.935.726-5.272,2.95-7.743A16.143,16.143,0,0,0,6.906.84,7.021,7.021,0,0,0,7.144,0L10.28,2.97C12.248,4.834,19,5.1,22.369,4.3c-2.249,1.331-5.061,1.6-10.4.8s-7.029,1.6-3.936,3.2S20.12,7.5,23.213,5.365c-2.8,4.58-8.135,5.233-12.04,5.711-.408.05-.8.1-1.174.148a19.324,19.324,0,0,1-4.227-.075c-2.519-.23-4.476-.409-3.926,1.673C2.451,15.117,1.742,16.582,1.184,17.178Z" transform="translate(809.676 262.001)" fill="#70a2f2" opacity="0.5"/>
          <path id="Vector-66" data-name="Vector" d="M40.087,25.768c1.739-6.2,7.063-6.326,9.508-5.613,1.358.255.272-2.94,4.89-3.475a9.334,9.334,0,0,1,8.966,4.544c1.358,2.138,2.445,4.277,4.618,6.147,1.087,3.207,4.618,6.682,5.434,7.484,0,.8.314,6.115.314,8.52,4.618-3.475,2.674-6.649,3.761-9.589.869-2.352.181-3.831-.272-4.277a20.582,20.582,0,0,0-.272-5.613,3.222,3.222,0,0,0-3.26-2.138,2.677,2.677,0,0,0-.815-3.208c-.815-.535-1.63-1.871-2.717-4.009s-5.433-5.613-7.335-6.415-1.9-2.138-2.445-2.673C53.4-.693,47.15,1.98,45.792,2.514a2.893,2.893,0,0,1-2.717-.267C32.48-4.168,25.688,4.92,23.787,7.593,12.376,12.4,8.3,18.552,9.116,27.1S7.486,38.865,5.584,40.737s-1.359,3.742.271,5.88c2.989,4.277-2.173,4.811-4.075,5.88S1.238,56.506.423,57.843s-.543,4.009,1.63,6.147c3.26-6.147,12.5-8.82,17.659-9.889s10.052-8.286,13.855-11.493S37.914,33.519,40.087,25.768Z" transform="translate(773.927 173.531)" fill="#2b2b39"/>
          <path id="Vector-67" data-name="Vector" d="M31.554,40.622c.421-6.483,1.684-14.215,4.313-20.067,1.617-3.6,3.734-6.449,6.45-7.881,2.661-1.4,5.951-1.472,10.025.549a4.653,4.653,0,0,1-.3,1.135c.2-.053.405-.1.631-.141a5.105,5.105,0,0,0,.233-1.125,5.99,5.99,0,0,0-1.658-4.468,39.854,39.854,0,0,0-4.3-4.209c-.41-.359-.8-.705-1.178-1.045A12.441,12.441,0,0,1,43.054.191a2.734,2.734,0,0,1-.7-.191,9.632,9.632,0,0,0,1.923,2.687,19.935,19.935,0,0,0-4.663-1.214c-3.457-.453-7.442.049-10.334,3.137-3.033,3.239-5.572,7.879-7.623,12.664a113.357,113.357,0,0,0-4.719,13.62,31.183,31.183,0,0,1-5.342,10.79,15.4,15.4,0,0,1-6.326,4.943,1.88,1.88,0,0,1-.218.649,15.642,15.642,0,0,0,6.975-5.263,31.709,31.709,0,0,0,5.438-10.977,112.924,112.924,0,0,1,4.7-13.555C24.2,12.715,26.711,8.142,29.681,4.97a10.556,10.556,0,0,1,8.56-3.088,24.789,24.789,0,0,0-11.447,9.44C24.24,15.213,22.741,20.874,21.25,26.5l-.118.447c-1.539,5.8-3.1,11.523-5.794,15.348a17.029,17.029,0,0,1-8.027,6A21.212,21.212,0,0,1,.857,49.653a5.739,5.739,0,0,0-.577.274A2.071,2.071,0,0,0,0,50.113l0,.081a20.94,20.94,0,0,0,7.508-1.4A17.571,17.571,0,0,0,15.787,42.6c2.762-3.92,4.341-9.742,5.873-15.517l.1-.392c1.5-5.673,2.984-11.262,5.49-15.079a23.44,23.44,0,0,1,12.34-9.6A19.377,19.377,0,0,1,44.353,3.3a12.423,12.423,0,0,0-11.035,8.077c-.8,2.094-1.88,5.522-3.146,9.55l-.1.305c-1.309,4.165-2.817,8.952-4.436,13.588a118.553,118.553,0,0,1-5.092,12.665,35.028,35.028,0,0,1-2.29,4.054l.033-.007a7.432,7.432,0,0,0,.748-.2,37.983,37.983,0,0,0,2-3.619A119.045,119.045,0,0,0,26.156,34.99c1.622-4.645,3.133-9.44,4.441-13.6l.09-.287c1.271-4.044,2.345-7.461,3.141-9.539A11.91,11.91,0,0,1,45.465,3.827c.364.33.743.662,1.132,1a39.121,39.121,0,0,1,4.231,4.136,5.672,5.672,0,0,1,1.551,3.677c-4.1-1.977-7.515-1.919-10.321-.44C39.185,13.718,37,16.695,35.367,20.34c-2.743,6.106-4.009,14.2-4.394,20.832Q31.267,40.886,31.554,40.622Z" transform="translate(775.32 176.109)" fill="#1c1c2a" opacity="0.5"/>
          <path id="Vector-68" data-name="Vector" d="M.27,39.671c3.153-1.128,5-3.864,6.235-7.209A44.724,44.724,0,0,0,8.256,25.77c.183-.928.355-1.858.526-2.779.26-1.4.515-2.788.8-4.119C10.934,12.649,14.958,4.468,17.433,0q-.414.177-.815.356c-2.5,4.594-6.262,12.385-7.566,18.4C8.762,20.1,8.5,21.5,8.242,22.91c-.17.92-.341,1.845-.522,2.758A44.281,44.281,0,0,1,5.992,32.28c-1.217,3.3-3,5.88-5.992,6.917Q.153,39.443.27,39.671Z" transform="translate(779.926 181.311)" fill="#1c1c2a" opacity="0.5"/>
          <path id="Vector-69" data-name="Vector" d="M.02.537c.4.031.8.051,1.193.062.8.023,1.61.008,2.383-.032.021-.181.046-.36.076-.539C2.881.072,2.053.09,1.228.066.814.055.4.033,0,0,0,.137.01.318.02.537Z" transform="translate(847.434 208.567)" fill="#3a0a44"/>
          <path id="Vector-70" data-name="Vector" d="M.569.9A19.867,19.867,0,0,0,9.8,2.928,1.8,1.8,0,0,0,9.5,2.5l0-.038,0-.055A19.436,19.436,0,0,1,0,0Q.167.153.342.3C.408.5.485.7.569.9Z" transform="translate(841.653 200.599)" fill="#3a0a44"/>
          <path id="Vector-71" data-name="Vector" d="M0,2.558C1.222,1.181,5.023-.854,11.264.384a4.434,4.434,0,0,0,.369.623C5.254-.406,1.5,1.675.408,2.909Z" transform="translate(823.601 179.544)" fill="#1c1c2a" opacity="0.5"/>
          <path id="Vector-72" data-name="Vector" d="M18.5,10.67a2.871,2.871,0,0,0,2.071-.385,3,3,0,0,1-.124.372,4.283,4.283,0,0,1,.492.029,3.426,3.426,0,0,1-2.539.508,7.291,7.291,0,0,1-3.489-2.081A38.192,38.192,0,0,1,10.367,3.39c-.353-.509-.679-.98-.973-1.386C8.4.632,6.729.358,4.952.625A13.957,13.957,0,0,0,.279,2.345L0,1.887A14.5,14.5,0,0,1,4.87.1c1.856-.28,3.794-.02,4.965,1.6.307.424.642.907,1,1.426a37.412,37.412,0,0,0,4.449,5.61A6.778,6.778,0,0,0,18.5,10.67Z" transform="translate(827.184 184.698)" fill="#1c1c2a" opacity="0.5"/>
          <path id="Vector-73" data-name="Vector" d="M0,.175C1.179,0,3.865-.2,5.171.445" transform="translate(826.388 177.396)" fill="none" stroke="#151523" stroke-width="0.8"/>
          <path id="Vector-74" data-name="Vector" d="M1.361,5.556A6.245,6.245,0,0,1,10.342,6.9a41.21,41.21,0,0,0,7.621,7.534m-12.791-3.5c2.449.628,7.729,2.744,9.253,6.188,1.905,4.3,5.443,7,8.165,6.727m-2.177,2.69a2.473,2.473,0,0,0,3.266,1.076" transform="translate(826.388 177.396)" fill="none" stroke="#151523" stroke-width="0.8"/>
          <path id="Vector-75" data-name="Vector" d="M33.071.044C28.282-.312,18.162,1.328,15.994,10.738s-6.867,21.387-8.946,26.2" transform="translate(780.89 176.109)" fill="none" stroke="#151523" stroke-width="0.8"/>
          <path id="Vector-76" data-name="Vector" d="M40.39,6.728c-3.614-.089-11.6,2.567-14.638,13.9m-.813-9.357c-2.078,3.832-6.614,13.1-8.132,19.516C14.909,38.809,13.554,48.968,0,51.107M2.711,37.472c1.265-1.96,3.632-7.058,2.982-11.763-.813-5.881.271-11.5,5.15-14.7" transform="translate(780.89 176.109)" fill="none" stroke="#151523" stroke-width="0.8"/>
        </g>
      </g>
    </g>
    <g id="Chat">
      <path id="Vector-77" data-name="Vector" d="M83,0H6.147A6.147,6.147,0,0,0,0,6.147V23.569a6.147,6.147,0,0,0,6.147,6.147H68.778L87.95,35.947l-5.272-6.231H83a6.147,6.147,0,0,0,6.147-6.147V6.147A6.147,6.147,0,0,0,83,0Z" transform="translate(982.89 191.13)" fill="#ffbe56"/>
      <path id="Vector-78" data-name="Vector" d="M2.875,5.752A2.876,2.876,0,1,0,0,2.876,2.876,2.876,0,0,0,2.875,5.752Zm16.3,0A2.876,2.876,0,1,0,16.3,2.876,2.876,2.876,0,0,0,19.171,5.752ZM37.863,2.876A2.876,2.876,0,1,1,34.987,0,2.876,2.876,0,0,1,37.863,2.876ZM50.8,5.752a2.876,2.876,0,1,0-2.876-2.876A2.876,2.876,0,0,0,50.8,5.752Z" transform="translate(1000.624 202.633)" fill="#fff"/>
    </g>
    <g id="Avater-4" data-name="Avater">
      <g id="Vector-79" data-name="Vector" transform="translate(950.489 472.515)" fill="#fff">
        <path d="M0,93.786A93.786,93.786,0,1,0,93.784,0,93.785,93.785,0,0,0,0,93.786Z" stroke="none"/>
        <path d="M 93.78386688232422 185.5706481933594 C 100.0127944946289 185.5706481933594 106.2372207641602 184.9432525634766 112.2842636108398 183.7058715820312 C 118.1766204833984 182.5001678466797 123.9725189208984 180.7010803222656 129.510986328125 178.3585815429688 C 134.9493713378906 176.0583953857422 140.1948394775391 173.2113494873047 145.1017150878906 169.8964538574219 C 149.9624938964844 166.6126708984375 154.5334167480469 162.8414459228516 158.6875457763672 158.6875 C 162.8416595458984 154.5335540771484 166.613037109375 149.9627685546875 169.8969421386719 145.1021728515625 C 173.2119903564453 140.1954803466797 176.0591888427734 134.9501800537109 178.3594665527344 129.5119476318359 C 180.7020721435547 123.9736251831055 182.5012359619141 118.1778717041016 183.7070159912109 112.2856750488281 C 184.9444732666016 106.2387466430664 185.5718994140625 100.0144271850586 185.5718994140625 93.78559875488281 C 185.5718994140625 87.55677032470703 184.9444732666016 81.33245086669922 183.7070159912109 75.28549957275391 C 182.5012359619141 69.39327239990234 180.7020721435547 63.59749984741211 178.3594665527344 58.05915069580078 C 176.0591888427734 52.62092590332031 173.2119903564453 47.37557220458984 169.8969421386719 42.46882247924805 C 166.613037109375 37.60820007324219 162.8416595458984 33.03739929199219 158.6875457763672 28.88342475891113 C 154.5334167480469 24.72942352294922 149.9624938964844 20.95817375183105 145.1017150878906 17.67437362670898 C 140.1948394775391 14.35944938659668 134.9493713378906 11.51234912872314 129.510986328125 9.212148666381836 C 123.9725189208984 6.869624137878418 118.1766204833984 5.070524215698242 112.2842636108398 3.864799022674561 C 106.2372207641602 2.627399206161499 100.0127944946289 1.999999046325684 93.78386688232422 1.999999046325684 C 87.55524444580078 1.999999046325684 81.33111572265625 2.627399206161499 75.28433990478516 3.864773988723755 C 69.39229583740234 5.070524215698242 63.59664154052734 6.869624137878418 58.05844116210938 9.212148666381836 C 52.62029266357422 11.51232433319092 47.37506866455078 14.35942363739014 42.46841812133789 17.67434883117676 C 37.60784149169922 20.95814895629883 33.03711700439453 24.72939872741699 28.88319206237793 28.88337326049805 C 24.72926712036133 33.03737258911133 20.95804214477539 37.60817337036133 17.67429161071777 42.46879959106445 C 14.35936737060547 47.37554931640625 11.51229190826416 52.62089920043945 9.212117195129395 58.05912399291992 C 6.869616985321045 63.59747314453125 5.070492267608643 69.39324951171875 3.864792108535767 75.28549957275391 C 2.627392053604126 81.33242034912109 1.99999213218689 87.55677032470703 1.99999213218689 93.78559875488281 C 1.99999213218689 100.0144271850586 2.627392053604126 106.2387466430664 3.864767074584961 112.2856750488281 C 5.070492267608643 118.1779022216797 6.869616985321045 123.9736480712891 9.212117195129395 129.5119781494141 C 11.51229190826416 134.9501953125 14.35936737060547 140.1954956054688 17.67426681518555 145.1022186279297 C 20.95801734924316 149.9628295898438 24.7292423248291 154.5335693359375 28.88319206237793 158.6875305175781 C 33.03711700439453 162.8414764404297 37.60784149169922 166.6127014160156 42.46841812133789 169.8964691162109 C 47.37506866455078 173.2113494873047 52.62029266357422 176.0584259033203 58.05841827392578 178.3585968017578 C 63.59664154052734 180.7010803222656 69.39226531982422 182.5001678466797 75.28433990478516 183.7058715820312 C 81.33111572265625 184.9432525634766 87.55524444580078 185.5706481933594 93.78386688232422 185.5706481933594 M 93.78386688232422 187.5706481933594 C 41.98931884765625 187.5706481933594 -7.922363693069201e-06 145.5819244384766 -7.922363693069201e-06 93.78559875488281 C -7.922363693069201e-06 41.98927307128906 41.98931884765625 -9.033203127728484e-07 93.78386688232422 -9.033203127728484e-07 C 145.5807952880859 -9.033203127728484e-07 187.5718994140625 41.98927307128906 187.5718994140625 93.78559875488281 C 187.5718994140625 145.5819244384766 145.5807952880859 187.5706481933594 93.78386688232422 187.5706481933594 Z" stroke="none" fill="rgba(39,115,217,0.6)"/>
      </g>
      <path id="Vector-80" data-name="Vector" d="M29.619,22.647C20.1,42.385,3.754,30.614,0,22.645c7.448,0,5.06-15.1,3.991-22.645h22C25.575,11.626,28.236,19.942,29.619,22.647Z" transform="translate(1032.508 482.049)" fill="#fcc4ac"/>
      <path id="Vector-81" data-name="Vector" d="M29.619,22.647C20.1,42.385,3.754,30.614,0,22.645c7.448,0,5.06-15.1,3.991-22.645h22C25.575,11.626,28.236,19.942,29.619,22.647Z" transform="translate(1032.508 482.049)" fill="url(#linear-gradient-2)"/>
      <path id="Vector-82" data-name="Vector" d="M10.254,10.6C10.141,42.868,1.327,128.206.02,141.487c-.689,7.026,16.458,13.167,35.66,14.541,24.945,1.785,45.81-6.628,50.312-10.464C87.233,107.21,89.2,23.491,89.2,16.377,79.868,9.729,66.5,3.5,60.31.879,48.016,8.5,39.226,5.895,33.453,0,24.775,1.621,14.3,8.13,10.254,10.6Z" transform="translate(1001.817 503.818)" fill="#307fe2"/>
      <path id="Vector-83" data-name="Vector" d="M10.254,10.6C10.141,42.868,1.327,128.206.02,141.487c-.689,7.026,16.458,13.167,35.66,14.541,24.945,1.785,45.81-6.628,50.312-10.464C87.233,107.21,89.2,23.491,89.2,16.377,79.868,9.729,66.5,3.5,60.31.879,48.016,8.5,39.226,5.895,33.453,0,24.775,1.621,14.3,8.13,10.254,10.6Z" transform="translate(1001.817 503.818)" fill="url(#linear-gradient-3)"/>
      <path id="Vector-84" data-name="Vector" d="M10.254,10.6C10.141,42.868,1.327,128.206.02,141.487c-.689,7.026,16.458,13.167,35.66,14.541,24.945,1.785,45.81-6.628,50.312-10.464C87.233,107.21,89.2,23.491,89.2,16.377,79.868,9.729,66.5,3.5,60.31.879,48.016,8.5,39.226,5.895,33.453,0,24.775,1.621,14.3,8.13,10.254,10.6Z" transform="translate(1001.817 503.818)" fill="#2773d9"/>
      <path id="Vector-85" data-name="Vector" d="M14.137.1l.44-.1a179.181,179.181,0,0,1,1.948,20.024c.356,9.351-.148,19.088-2.6,25.972C10.9,54.5,10.9,64.831,11.661,74.447c.321,4.111.784,8.085,1.212,11.727h0v.014c.071.61.143,1.211.208,1.8a100.746,100.746,0,0,1,.861,10.529V100.3c.024,4.764.042,8.892-1.283,13.781-1.479,5.491-4.645,11.93-11.344,21.337a6.65,6.65,0,0,0-.748,4.806,25.573,25.573,0,0,0,2,6.436,61.377,61.377,0,0,0,3.932,7.417l-.594-.119a60.759,60.759,0,0,1-3.748-7.119,26.272,26.272,0,0,1-2.031-6.553,7.121,7.121,0,0,1,.826-5.127h0c6.688-9.386,9.818-15.775,11.279-21.195,1.307-4.827,1.289-8.895,1.271-13.663v0c0-.584-.006-1.178-.006-1.786a100.454,100.454,0,0,0-.855-10.478c-.065-.592-.137-1.2-.208-1.809v0h0C12,82.585,11.536,78.6,11.209,74.482c-.76-9.626-.76-20.036,2.293-28.636,2.417-6.8,2.928-16.464,2.572-25.805A176.7,176.7,0,0,0,14.137.1Z" transform="translate(1019.907 503.975)" fill="#fff" opacity="0.35"/>
      <path id="Vector-86" data-name="Vector" d="M1.688,140.6c.214.147.434.293.665.438a24.768,24.768,0,0,1-1.788-5.946,6.68,6.68,0,0,1,.748-4.806c6.7-9.407,9.865-15.846,11.35-21.337,1.319-4.889,1.3-9.017,1.283-13.781v-.009c-.006-.581-.006-1.173-.006-1.777a100.528,100.528,0,0,0-.855-10.529q-.107-.886-.214-1.8v-.014h0c-.428-3.641-.891-7.615-1.212-11.727-.76-9.616-.76-19.945,2.269-28.451,2.447-6.884,2.952-16.621,2.6-25.972C16.323,9.621,15.854,4.468,15.3,0c-.143.078-.285.156-.422.233.546,4.415,1,9.488,1.2,14.67.356,9.341-.154,19.005-2.572,25.805-3.053,8.6-3.053,19.009-2.293,28.636.327,4.121.79,8.1,1.218,11.744h0v0q.107.919.214,1.809a100.229,100.229,0,0,1,.849,10.478c0,.607.006,1.2.006,1.783v0c.018,4.768.036,8.835-1.265,13.663-1.467,5.418-4.6,11.808-11.285,21.194h0a7.121,7.121,0,0,0-.826,5.127A24.117,24.117,0,0,0,1.688,140.6Z" transform="translate(1003.727 510.339)" fill="#fff" opacity="0.35"/>
      <path id="Vector-87" data-name="Vector" d="M5.262,151.484a59.022,59.022,0,0,1-3.112-6.053,26,26,0,0,1-2.025-6.553,7.091,7.091,0,0,1,.82-5.127h0c6.688-9.387,9.824-15.776,11.285-21.195,1.3-4.828,1.283-8.9,1.265-13.663v0c0-.584-.006-1.178-.006-1.785a100.219,100.219,0,0,0-.849-10.478q-.107-.892-.214-1.813h0c-.422-3.641-.891-7.624-1.212-11.744-.76-9.627-.766-20.037,2.293-28.636,2.417-6.8,2.922-16.464,2.572-25.8A178.533,178.533,0,0,0,14.349.088c.148-.027.3-.057.44-.088a178.035,178.035,0,0,1,1.734,18.612c.356,9.351-.148,19.088-2.6,25.972C10.9,53.089,10.9,63.419,11.658,73.035c.327,4.111.79,8.085,1.212,11.726h0q.107.923.214,1.816a100.527,100.527,0,0,1,.855,10.529c0,.606,0,1.2.006,1.787.018,4.764.036,8.891-1.283,13.781-1.485,5.49-4.645,11.93-11.35,21.336a6.68,6.68,0,0,0-.748,4.806,26.079,26.079,0,0,0,2,6.436,59.691,59.691,0,0,0,3.255,6.29Z" transform="translate(1037.305 508.96)" fill="#fff" opacity="0.35"/>
      <path id="Vector-88" data-name="Vector" d="M5.965,153.653a60.74,60.74,0,0,1-3.813-7.225,26.272,26.272,0,0,1-2.031-6.553,7.121,7.121,0,0,1,.826-5.127h0c6.688-9.387,9.818-15.776,11.285-21.194,1.3-4.828,1.283-8.9,1.265-13.663,0-.584-.006-1.179-.006-1.787a100.217,100.217,0,0,0-.849-10.478q-.107-.891-.214-1.813h0c-.422-3.641-.891-7.624-1.212-11.744-.766-9.627-.766-20.037,2.293-28.636,2.417-6.8,2.922-16.464,2.572-25.8A179.742,179.742,0,0,0,14.191,0c.16.077.321.154.487.233a179.42,179.42,0,0,1,1.847,19.376c.356,9.351-.148,19.088-2.6,25.972-3.023,8.505-3.029,18.835-2.269,28.451.327,4.112.79,8.086,1.212,11.727v.008q.107.919.214,1.807A100.525,100.525,0,0,1,13.941,98.1c0,.606,0,1.2.006,1.785v0c.018,4.764.036,8.891-1.283,13.781-1.485,5.49-4.645,11.93-11.35,21.336a6.68,6.68,0,0,0-.748,4.806,26.079,26.079,0,0,0,2,6.436,61.4,61.4,0,0,0,3.932,7.412Z" transform="translate(1055.18 507.962)" fill="#fff" opacity="0.35"/>
      <path id="Vector-89" data-name="Vector" d="M5.421,141.65a59.923,59.923,0,0,1-3.273-6.327A26,26,0,0,1,.123,128.77a7.121,7.121,0,0,1,.82-5.127H.949c6.688-9.387,9.818-15.776,11.279-21.195,1.3-4.828,1.289-8.9,1.271-13.663-.006-.584-.006-1.179-.006-1.787a100.444,100.444,0,0,0-.855-10.478c-.071-.593-.137-1.2-.208-1.81v0c-.428-3.641-.891-7.625-1.218-11.745-.76-9.627-.766-20.037,2.293-28.636,2.417-6.8,2.928-16.464,2.572-25.8-.113-2.907-.3-5.779-.552-8.52.166.109.321.217.481.326.232,2.638.416,5.391.517,8.177.356,9.351-.148,19.088-2.6,25.972C10.9,42.98,10.9,53.31,11.657,62.925c.327,4.112.79,8.086,1.218,11.727.071.615.137,1.22.208,1.815A100.527,100.527,0,0,1,13.938,87c0,.606.006,1.2.006,1.786.018,4.765.036,8.892-1.283,13.782-1.485,5.49-4.645,11.93-11.35,21.336a6.681,6.681,0,0,0-.742,4.806,25.583,25.583,0,0,0,2,6.436A58.973,58.973,0,0,0,5.9,141.572C5.742,141.6,5.581,141.625,5.421,141.65Z" transform="translate(1073.863 519.069)" fill="#fff" opacity="0.35"/>
      <path id="Vector-90" data-name="Vector" d="M.132,0c-.3,6.76,0,23.277,0,35.377,0,20.452,30.653,4.593,35.339-3.644C44.7,15.508,34.5.876,32.549,0Z" transform="translate(1023.027 450.315)" fill="url(#linear-gradient-4)"/>
      <path id="Vector-91" data-name="Vector" d="M.132,0c-.3,6.76,0,23.277,0,35.377,0,20.452,30.653,4.593,35.339-3.644C44.7,15.508,34.5.876,32.549,0Z" transform="translate(1023.027 450.315)" fill="#fcc4ac"/>
      <path id="Vector-92" data-name="Vector" d="M43.618,11.573c6.7-1.272,5.72,4.153,5.334,5.036,16.007,4.41-3.451,36.742-5.838,37.415L43.1,47.991c-.024-2.4,4.68-4.854,2.108-9.079-3.415-5.609-4.158,5.413-4.158,5.413-2.423-1.276-3.3-10.422-1.045-15.6-7.923,3.5-13.12-3.016-14.124-4.876-5.589,3.249-14.153,1.945-16.909-.731a29.045,29.045,0,0,0-1.313,9.136C1.265,28.814-2.031,16.111,1.348,17.27c-.434-25.3,21.892-16.2,24.529-13.2s3.255,2.164,3.6,1.939c9.408-4.592,13.981-.042,13.1,2.858S43.357,11.631,43.618,11.573Z" transform="translate(1015.366 432.78)" fill="#6e000e"/>
      <path id="Vector-93" data-name="Vector" d="M17.657,4.373c-4.789.426-8.95-2.432-8.019-2.755C22.1-2.706,38.853,2.679,48.537,5.651c3.4,6.868-2.242,14.479-5.487,17.427-1.636-1.651-5.018-3.787-7.236-3.787-11.272-.619-22.12,15.555-33.145,7.5C-6.15,20.352,8.987,9.163,17.657,4.373Z" transform="translate(909.019 553.107)" fill="#f4b88e"/>
      <path id="Vector-94" data-name="Vector" d="M17.657,4.373c-4.789.426-8.95-2.432-8.019-2.755C22.1-2.706,38.853,2.679,48.537,5.651c3.4,6.868-2.242,14.479-5.487,17.427-1.636-1.651-5.018-3.787-7.236-3.787-11.272-.619-22.12,15.555-33.145,7.5C-6.15,20.352,8.987,9.163,17.657,4.373Z" transform="translate(909.019 553.107)" fill="#fcc4ac"/>
      <path id="Vector-95" data-name="Vector" d="M67.017,0c1.17,21.635-2.376,58.9-5.072,77.861C59.094,85.007-1.58,62.757.032,58.455S5.682,47.848,7.676,42.784c1.368-3.475,36.291,12.893,37.582,7.022S47.544,10.942,67.017,0Z" transform="translate(945.052 514.413)" fill="#307fe2"/>
      <path id="Vector-96" data-name="Vector" d="M67.017,0c1.17,21.635-2.376,58.9-5.072,77.861C59.094,85.007-1.58,62.757.032,58.455S5.682,47.848,7.676,42.784c1.368-3.475,36.291,12.893,37.582,7.022S47.544,10.942,67.017,0Z" transform="translate(945.052 514.413)" fill="url(#linear-gradient-5)"/>
      <path id="Vector-97" data-name="Vector" d="M67.017,0c1.17,21.635-2.376,58.9-5.072,77.861C59.094,85.007-1.58,62.757.032,58.455S5.682,47.848,7.676,42.784c1.368-3.475,36.291,12.893,37.582,7.022S47.544,10.942,67.017,0Z" transform="translate(945.052 514.413)" fill="#2773d9"/>
      <path id="Vector-98" data-name="Vector" d="M62.271,0c-4.377,11.789-5.595,28.731-3.617,41.579.986,6.409,1.515,12.037.665,16.644A13.75,13.75,0,0,1,51.763,68.7a5.651,5.651,0,0,1-4.835.159,26.437,26.437,0,0,1-3.8-1.914c-.489-.279-.994-.565-1.519-.852-3.946-2.158-8.886-4.216-16.264-1.946-5.75,1.769-11.459-.071-16.01-2.932S1.433,54.5.406,52.324L0,52.516C1.073,54.792,4.493,58.7,9.1,61.6s10.457,4.8,16.381,2.981c7.214-2.22,12.023-.219,15.916,1.91.506.276,1,.557,1.482.832a27.187,27.187,0,0,0,3.9,1.962,6.1,6.1,0,0,0,5.195-.181,14.179,14.179,0,0,0,7.791-10.8c.867-4.69.321-10.386-.665-16.794-1.966-12.785-.748-29.648,3.6-41.355Zm-9.3,13.076c.143-.758.275-1.457.39-2.085l-.441-.081c-.114.625-.245,1.322-.388,2.079-.772,4.092-1.879,9.961-2.46,15.965-.688,7.1-.646,14.453,1.594,19.29,2.633,5.682,1.567,9.61-.805,11.549-2.389,1.952-6.192,1.969-9.217-.35A16.145,16.145,0,0,0,34.024,56.2c-3.384-.454-7.528.18-12.239,3.235-1.2.781-3.1.916-5.265.5a20.028,20.028,0,0,1-6.661-2.718,15.721,15.721,0,0,1-5.149-5,7.413,7.413,0,0,1-.861-6.262l-.426-.14a7.859,7.859,0,0,0,.9,6.632,16.175,16.175,0,0,0,5.295,5.149,20.486,20.486,0,0,0,6.815,2.78c2.2.426,4.244.315,5.594-.561,4.628-3,8.664-3.606,11.935-3.167a15.7,15.7,0,0,1,7.4,3.157c3.164,2.426,7.2,2.443,9.774.341,2.59-2.116,3.612-6.3.929-12.085C49.884,43.339,49.827,36.1,50.515,29,51.094,23.015,52.2,17.169,52.968,13.076Z" transform="translate(946.895 516.07)" fill="#fff" opacity="0.35"/>
      <path id="Vector-99" data-name="Vector" d="M7.676.489C5.682,5.554,1.644,11.858.031,16.16c-.276.737,1.275,2,4.049,3.552,4.454-3.3,8.3-13.919,9.673-18.817C10.369-.021,8.012-.363,7.676.489Z" transform="translate(945.052 556.708)" fill="#105cc1"/>
      <path id="Vector-100" data-name="Vector" d="M12.106,31.937c2.114-.982,9.247-15.191,13.025-25.073L16.567,0C4.522,4.042-.467,16.094,2.556,15.6s3.3,1.137.7,4.567C-6.739,33.323,9.2,33.291,12.106,31.937Z" transform="translate(1065.883 630.952)" fill="#fcc4ac"/>
      <path id="Vector-101" data-name="Vector" d="M39.655,69c5.328-17.563-11.992-58.357-25.29-69,0,4.343-.831,24.443-1.283,51.131C20.714,64.806,1.9,106.406.141,109.914s13.607,16.625,16.119,11.55S33.662,88.743,39.655,69Z" transform="translate(1076.648 520.195)" fill="#307fe2"/>
      <path id="Vector-102" data-name="Vector" d="M39.655,69c5.328-17.563-11.992-58.357-25.29-69,0,4.343-.831,24.443-1.283,51.131C20.714,64.806,1.9,106.406.141,109.914s13.607,16.625,16.119,11.55S33.662,88.743,39.655,69Z" transform="translate(1076.648 520.195)" fill="url(#linear-gradient-6)"/>
      <path id="Vector-103" data-name="Vector" d="M39.655,69c5.328-17.563-11.992-58.357-25.29-69,0,4.343-.831,24.443-1.283,51.131C20.714,64.806,1.9,106.406.141,109.914s13.607,16.625,16.119,11.55S33.662,88.743,39.655,69Z" transform="translate(1076.648 520.195)" fill="#2773d9"/>
      <path id="Vector-104" data-name="Vector" d="M12.015,2.431C11.3,1.541,10.637.726,10.067,0L9.711.277c.576.735,1.247,1.557,1.972,2.452a112.882,112.882,0,0,1,7.781,10.447c3.279,5.16,5.737,10.773,5.048,15.8a22.008,22.008,0,0,0,1.408,10.015c.8,2.343,1.806,4.7,2.8,7.017.44,1.022.879,2.036,1.289,3.036a30.651,30.651,0,0,1,2.619,9.308,9.416,9.416,0,0,1-2.887,7.755c-4.466,4.358-5.387,8.3-6.272,12.065-.113.491-.226.979-.35,1.465a18.462,18.462,0,0,1-2.584,6.227,22.6,22.6,0,0,1-7.145,6.39,11.973,11.973,0,0,0-3.724,4.391,34.1,34.1,0,0,0-2.679,6.4,32.731,32.731,0,0,0-1.33,6.017,10.169,10.169,0,0,0-.047,2.134,2.949,2.949,0,0,0,.089.494,29,29,0,0,1-4.817-3.525,22.714,22.714,0,0,1,.962-12.108c1.414-3.954,3.849-7.326,7.1-8.863A10.12,10.12,0,0,0,14.4,81.926,18.736,18.736,0,0,0,15.43,75.32c.006-.094.006-.189.012-.284a26.091,26.091,0,0,1,.837-6.83,14,14,0,0,1,4.811-6.974c2.708-2.218,3.623-4.469,3.451-6.753-.16-2.259-1.384-4.512-2.833-6.747-.457-.706-.938-1.409-1.414-2.113a47.183,47.183,0,0,1-2.922-4.655c-1.188-2.274-1.841-4.542-1.265-6.839A21.65,21.65,0,0,0,9.663,12.751l-.309.329a21.186,21.186,0,0,1,6.314,20.936c-.612,2.453.1,4.842,1.307,7.156A48.184,48.184,0,0,0,19.938,45.9c.481.7.95,1.392,1.4,2.078,1.449,2.233,2.607,4.4,2.762,6.536.154,2.11-.665,4.227-3.284,6.373a14.4,14.4,0,0,0-4.959,7.193,26.711,26.711,0,0,0-.861,6.928c0,.1-.006.2-.006.3a18.438,18.438,0,0,1-1,6.448,9.66,9.66,0,0,1-5.238,5.034c-3.4,1.607-5.9,5.1-7.329,9.118a23.1,23.1,0,0,0-.962,12.427l.018.069.054.048a28.468,28.468,0,0,0,5.619,4l.238-.382a.588.588,0,0,1-.2-.292,2.688,2.688,0,0,1-.137-.628A9.679,9.679,0,0,1,6.1,109.11a32.057,32.057,0,0,1,1.313-5.931,33.594,33.594,0,0,1,2.643-6.314,11.533,11.533,0,0,1,3.57-4.229,23.146,23.146,0,0,0,7.282-6.52,18.963,18.963,0,0,0,2.649-6.37c.119-.491.238-.982.35-1.475.879-3.753,1.776-7.579,6.147-11.842a9.866,9.866,0,0,0,3.017-8.1,30.943,30.943,0,0,0-2.649-9.451c-.416-1.014-.855-2.036-1.3-3.062-.986-2.307-1.99-4.639-2.78-6.965a21.669,21.669,0,0,1-1.39-9.809c.719-5.2-1.823-10.929-5.108-16.1A113.114,113.114,0,0,0,12.015,2.431Z" transform="translate(1080.891 529.41)" fill="#fff" opacity="0.35"/>
      <path id="Vector-105" data-name="Vector" d="M0,38.009C4.728,24.362,8.856,7.725,4.544,0,16.125,8.12,7.329,26.289,0,38.009Z" transform="translate(1085.188 571.327)" fill="#105cc1"/>
      <path id="Vector-106" data-name="Vector" d="M.141,2.576C-1.623,6.085,13.748,19.2,16.26,14.126c.2-.391.463-.916.79-1.561C13.367,11.742,5.076,8.077,1.334,0,.758,1.286.337,2.177.141,2.576Z" transform="translate(1076.648 627.534)" fill="#307fe2"/>
      <path id="Vector-107" data-name="Vector" d="M.141,2.576C-1.623,6.085,13.748,19.2,16.26,14.126c.2-.391.463-.916.79-1.561C13.367,11.742,5.076,8.077,1.334,0,.758,1.286.337,2.177.141,2.576Z" transform="translate(1076.648 627.534)" fill="url(#linear-gradient-7)"/>
      <path id="Vector-108" data-name="Vector" d="M.141,2.576C-1.623,6.085,13.748,19.2,16.26,14.126c.2-.391.463-.916.79-1.561C13.367,11.742,5.076,8.077,1.334,0,.758,1.286.337,2.177.141,2.576Z" transform="translate(1076.648 627.534)" fill="#105cc1"/>
      <g id="Chat-2" data-name="Chat">
        <path id="Vector-109" data-name="Vector" d="M83,0H6.147A6.147,6.147,0,0,0,0,6.147V23.569a6.147,6.147,0,0,0,6.147,6.147H68.778L87.95,35.947l-5.272-6.231H83a6.147,6.147,0,0,0,6.147-6.147V6.147A6.147,6.147,0,0,0,83,0Z" transform="translate(884.637 468.029)" fill="#8bbafa"/>
        <path id="Vector-110" data-name="Vector" d="M2.875,5.752A2.876,2.876,0,1,0,0,2.876,2.876,2.876,0,0,0,2.875,5.752Zm16.3,0A2.876,2.876,0,1,0,16.3,2.876,2.876,2.876,0,0,0,19.171,5.752ZM37.863,2.876A2.876,2.876,0,1,1,34.987,0,2.876,2.876,0,0,1,37.863,2.876ZM50.8,5.752a2.876,2.876,0,1,0-2.876-2.876A2.876,2.876,0,0,0,50.8,5.752Z" transform="translate(902.371 479.532)" fill="#fff"/>
      </g>
    </g>
  </g>
</svg>
